<svg xmlns="http://www.w3.org/2000/svg" viewBox="0 0 1150 900" role="img" aria-labelledby="title desc">
<title id="title">CPU prefix comparison — onino v0.2.0</title>
<desc id="desc">Five sequential samples per tool and workload on a Ryzen 9 9950X3D with 32 workers. Bars show median million candidates per second; whiskers show minimum and maximum. The somethingrare prefix produced no matches.</desc>
<style>svg{color-scheme:light}text{font-family:Segoe UI,Arial,sans-serif;font-size:18px;fill:#475569}.title{font-size:32px;font-weight:600;fill:#1e293b}.heading{font-size:21px;font-weight:600;fill:#1e293b}.small{font-size:15px}.grid{stroke:#8592a3;stroke-opacity:0.22}.series{fill:none;stroke-width:3}.range{fill:none;stroke-width:1.5}</style>
<text x="36" y="44" class="title">CPU prefix comparison</text>
<text x="36" y="77">Ryzen 9 9950X3D · Windows 11 · 32 workers · million candidates/s ↑</text>
<rect x="36" y="101" width="16" height="16" rx="3" fill="#786088"/>
<text x="62" y="115">onino AVX2</text>
<rect x="256" y="101" width="16" height="16" rx="3" fill="#9252b5"/>
<text x="282" y="115">onino auto (AVX-512)</text>
<rect x="586" y="101" width="16" height="16" rx="3" fill="#61852f"/>
<text x="612" y="115">onionloom</text>
<rect x="806" y="101" width="16" height="16" rx="3" fill="#a45d36"/>
<text x="832" y="115">mkp224o</text>
<path d="M300.0,141V752" class="grid"/>
<text x="300.0" y="782" text-anchor="middle">0</text>
<path d="M448.1,141V752" class="grid"/>
<text x="448.1" y="782" text-anchor="middle">250</text>
<path d="M596.2,141V752" class="grid"/>
<text x="596.2" y="782" text-anchor="middle">500</text>
<path d="M744.2,141V752" class="grid"/>
<text x="744.2" y="782" text-anchor="middle">750</text>
<path d="M892.3,141V752" class="grid"/>
<text x="892.3" y="782" text-anchor="middle">1,000</text>
<path d="M1040.4,141V752" class="grid"/>
<text x="1040.4" y="782" text-anchor="middle">1,250</text>
<text x="36" y="197" class="heading">hello</text>
<rect x="300" y="157" width="246.64" height="18" rx="3" fill="#786088"/>
<path d="M542.49,166H549.94M542.49,161v10M549.94,161v10" class="range" stroke="#1e293b"/>
<text x="558.64" y="172">416.4</text>
<rect x="300" y="183" width="717.31" height="18" rx="3" fill="#9252b5"/>
<path d="M1015.61,192H1023.31M1015.61,187v10M1023.31,187v10" class="range" stroke="#1e293b"/>
<text x="1029.31" y="198">1,211.1</text>
<rect x="300" y="209" width="203.41" height="18" rx="3" fill="#61852f"/>
<path d="M500.58,218H504.48M500.58,213v10M504.48,213v10" class="range" stroke="#1e293b"/>
<text x="515.41" y="224">343.4</text>
<rect x="300" y="235" width="76.70" height="18" rx="3" fill="#a45d36"/>
<path d="M376.42,244H377.20M376.42,239v10M377.20,239v10" class="range" stroke="#1e293b"/>
<text x="388.70" y="250">129.5</text>
<text x="36" y="347" class="heading">privacy</text>
<rect x="300" y="307" width="250.46" height="18" rx="3" fill="#786088"/>
<path d="M548.30,316H551.61M548.30,311v10M551.61,311v10" class="range" stroke="#1e293b"/>
<text x="562.46" y="322">422.9</text>
<rect x="300" y="333" width="739.01" height="18" rx="3" fill="#9252b5"/>
<path d="M1034.53,342H1041.71M1034.53,337v10M1041.71,337v10" class="range" stroke="#1e293b"/>
<text x="1051.01" y="348">1,247.7</text>
<rect x="300" y="359" width="204.46" height="18" rx="3" fill="#61852f"/>
<path d="M502.38,368H504.84M502.38,363v10M504.84,363v10" class="range" stroke="#1e293b"/>
<text x="516.46" y="374">345.2</text>
<rect x="300" y="385" width="77.19" height="18" rx="3" fill="#a45d36"/>
<path d="M376.70,394H377.84M376.70,389v10M377.84,389v10" class="range" stroke="#1e293b"/>
<text x="389.19" y="400">130.3</text>
<text x="36" y="497" class="heading">donate, mirror, secure</text>
<rect x="300" y="457" width="245.10" height="18" rx="3" fill="#786088"/>
<path d="M541.72,466H546.51M541.72,461v10M546.51,461v10" class="range" stroke="#1e293b"/>
<text x="557.10" y="472">413.8</text>
<rect x="300" y="483" width="732.92" height="18" rx="3" fill="#9252b5"/>
<path d="M1028.53,492H1034.66M1028.53,487v10M1034.66,487v10" class="range" stroke="#1e293b"/>
<text x="1044.92" y="498">1,237.4</text>
<rect x="300" y="509" width="197.12" height="18" rx="3" fill="#61852f"/>
<path d="M495.51,518H498.20M495.51,513v10M498.20,513v10" class="range" stroke="#1e293b"/>
<text x="509.12" y="524">332.8</text>
<rect x="300" y="535" width="65.89" height="18" rx="3" fill="#a45d36"/>
<path d="M365.52,544H366.64M365.52,539v10M366.64,539v10" class="range" stroke="#1e293b"/>
<text x="377.89" y="550">111.2</text>
<text x="36" y="647" class="heading">somethingrare</text>
<text x="36" y="672" class="small">no matches / no key-file I/O</text>
<rect x="300" y="607" width="250.47" height="18" rx="3" fill="#786088"/>
<path d="M547.72,616H550.96M547.72,611v10M550.96,611v10" class="range" stroke="#1e293b"/>
<text x="562.47" y="622">422.9</text>
<rect x="300" y="633" width="736.37" height="18" rx="3" fill="#9252b5"/>
<path d="M1033.57,642H1039.18M1033.57,637v10M1039.18,637v10" class="range" stroke="#1e293b"/>
<text x="1048.37" y="648">1,243.2</text>
<rect x="300" y="659" width="204.40" height="18" rx="3" fill="#61852f"/>
<path d="M500.38,668H504.67M500.38,663v10M504.67,663v10" class="range" stroke="#1e293b"/>
<text x="516.40" y="674">345.1</text>
<rect x="300" y="685" width="77.23" height="18" rx="3" fill="#a45d36"/>
<path d="M376.72,694H377.70M376.72,689v10M377.70,689v10" class="range" stroke="#1e293b"/>
<text x="389.23" y="700">130.4</text>
<text x="36" y="826">Five samples each · median bars, min–max whiskers · 20–32 s after warm-up</text>
<text x="36" y="851">Normal key-file output enabled; zero files in every somethingrare trial. GPU disabled.</text>
<text x="36" y="878" class="small">2026-10-06 · onino v0.2.0 (PACE 1.27.1) · onionloom v1.0.1 · mkp224o v1.7.0</text>
</svg>
